<?xml version="1.0" standalone="no"?>
<!DOCTYPE svg PUBLIC "-//W3C//DTD SVG 20010904//EN"
 "http://www.w3.org/TR/2001/REC-SVG-20010904/DTD/svg10.dtd">
<svg version="1.0" xmlns="http://www.w3.org/2000/svg"
 width="256.000000pt" height="256.000000pt" viewBox="0 0 256.000000 256.000000"
 preserveAspectRatio="xMidYMid meet">

<g transform="translate(0.000000,256.000000) scale(0.100000,-0.100000)"
fill="#f33" stroke="none">
<path d="M1360 2193 c-66 -10 -70 -13 -70 -43 0 -16 5 -32 10 -35 6 -3 10 5
10 19 0 35 25 45 116 48 77 2 78 1 106 -32 33 -40 34 -56 8 -179 -22 -103 -25
-130 -12 -116 14 16 54 242 47 264 -3 11 -22 34 -41 50 -31 27 -41 31 -92 30
-31 -1 -68 -3 -82 -6z"/>
<path d="M555 2171 c-49 -3 -96 -10 -102 -14 -7 -5 -13 -23 -13 -40 l1 -32 14
33 14 32 273 1 c322 0 427 11 214 22 -149 8 -258 7 -401 -2z"/>
<path d="M1225 1963 c-11 -2 -30 -6 -42 -9 -19 -4 -23 -11 -22 -42 l1 -37 9
32 c10 34 31 41 138 45 50 2 55 0 87 -35 38 -41 40 -50 19 -127 -17 -65 -20
-110 -4 -70 6 14 16 54 24 90 11 54 11 68 -1 91 -26 51 -60 69 -128 68 -33 -1
-70 -3 -81 -6z"/>
<path d="M316 1924 c-9 -8 -16 -27 -16 -41 0 -29 7 -26 24 9 12 23 12 23 281
25 149 1 293 6 320 11 35 7 -48 10 -272 11 -280 1 -324 -1 -337 -15z"/>
<path d="M1647 1893 c-52 -36 -167 -138 -167 -149 0 -3 -13 -24 -29 -47 -45
-66 -73 -119 -65 -126 4 -3 9 0 11 7 3 7 28 45 57 85 l52 72 105 -4 c81 -2
113 1 144 13 78 33 118 93 94 139 -20 36 -41 46 -95 47 -44 0 -61 -6 -107 -37z
m170 6 c45 -38 -16 -117 -106 -139 -50 -12 -171 -6 -171 9 0 21 134 128 177
141 32 10 80 5 100 -11z"/>
<path d="M1051 1748 l-53 -10 6 -38 c7 -47 25 -95 32 -88 2 3 1 24 -4 46 -5
22 -6 45 -3 51 4 6 41 15 82 20 84 11 117 -1 147 -51 15 -25 15 -33 -6 -120
-26 -110 -27 -114 -7 -98 8 7 15 22 15 34 0 11 7 50 17 86 19 78 14 108 -28
149 -27 28 -36 31 -87 30 -31 -1 -81 -6 -111 -11z"/>
<path d="M162 1718 c-7 -7 -12 -23 -12 -37 l0 -26 19 25 20 25 263 2 c145 1
288 6 318 11 41 7 -30 10 -271 11 -241 1 -328 -2 -337 -11z"/>
<path d="M1535 1678 c33 -121 161 -280 265 -331 89 -44 263 -85 428 -102 156
-16 275 -84 288 -166 9 -52 24 -50 24 4 0 52 -23 89 -83 131 -54 39 -138 59
-312 77 -226 22 -341 67 -450 176 -41 41 -68 82 -98 145 -23 48 -48 88 -55 88
-9 0 -11 -7 -7 -22z"/>
<path d="M1292 1463 c-100 -126 -88 -120 -232 -126 -151 -7 -191 -19 -248 -73
-41 -39 -43 -45 -40 -89 4 -64 37 -90 111 -89 76 0 133 34 233 136 89 90 111
105 100 66 -20 -71 -28 -118 -23 -132 7 -18 42 -22 53 -5 4 8 -1 9 -16 4 -22
-7 -22 -6 -15 41 4 27 13 64 21 83 14 33 16 33 57 27 23 -3 53 -8 67 -12 24
-5 24 -5 5 10 -11 9 -37 19 -57 23 -21 3 -41 10 -44 15 -10 16 18 70 68 134
26 34 48 65 48 68 0 20 -26 -4 -88 -81z m-206 -230 c-88 -85 -140 -112 -210
-113 -84 0 -113 56 -61 118 41 49 88 65 215 71 63 4 119 5 124 2 5 -2 -25 -38
-68 -78z"/>
<path d="M1405 1519 c-19 -29 70 -191 146 -267 98 -98 282 -160 559 -187 190
-19 340 -101 340 -186 0 -18 4 -28 10 -24 6 3 10 17 10 31 0 51 -49 112 -123
153 -48 27 -179 61 -232 61 -61 0 -251 28 -315 46 -142 41 -269 144 -333 274
-21 40 -37 81 -37 91 0 21 -15 25 -25 8z"/>
<path d="M170 1354 c0 -69 -3 -81 -35 -132 -67 -110 -80 -176 -98 -502 -2 -34
-1 -36 85 -79 101 -51 157 -59 398 -60 86 -1 178 -7 225 -16 44 -8 139 -26
210 -40 72 -14 159 -32 195 -40 411 -94 558 -97 835 -17 267 77 415 171 415
264 0 98 -134 159 -405 183 -395 35 -591 119 -684 294 -18 34 -36 61 -42 61
-15 0 -11 -17 18 -78 55 -117 191 -216 360 -261 95 -26 115 -29 319 -45 245
-20 338 -45 383 -102 32 -41 27 -66 -28 -117 -104 -98 -364 -196 -561 -212
-132 -11 -363 16 -605 69 -255 57 -427 86 -561 96 -342 24 -401 38 -464 105
-23 24 -25 36 -28 125 -6 148 25 266 102 398 10 17 11 33 4 60 -5 20 -14 56
-19 80 -6 23 -13 42 -15 42 -2 0 -4 -34 -4 -76z"/>
<path d="M2360 576 c-34 -33 -208 -110 -332 -147 -352 -106 -483 -104 -971 17
-164 40 -321 74 -347 74 -13 0 -19 -11 -24 -44 -9 -61 -26 -66 -209 -66 -243
1 -363 32 -431 111 -18 22 -36 39 -39 39 -14 0 -6 -103 9 -129 35 -60 149
-109 272 -118 65 -5 297 15 417 36 38 6 40 8 43 46 1 22 5 45 7 52 4 11 118
-15 435 -101 233 -64 410 -79 575 -50 336 58 625 183 625 270 0 27 -9 30 -30
10z"/>
</g>
</svg>
